<svg width="59" height="71" viewBox="0 0 59 71" fill="none" xmlns="http://www.w3.org/2000/svg">
<g id="Group 1253">
<path id="Union" fill-rule="evenodd" clip-rule="evenodd" d="M36.2565 51.1476C36.2565 49.9615 35.295 49 34.109 49C32.9229 49 31.9614 49.9615 31.9614 51.1476V54.816L29.3674 52.222C28.5287 51.3834 27.169 51.3834 26.3303 52.222C25.4916 53.0607 25.4916 54.4205 26.3303 55.2592L28.9243 57.8532H25.2559C24.0699 57.8532 23.1084 58.8147 23.1084 60.0007C23.1084 61.1868 24.0699 62.1483 25.2559 62.1483L28.9242 62.1483L26.3302 64.7423C25.4915 65.581 25.4915 66.9407 26.3302 67.7794C27.1689 68.6181 28.5286 68.6181 29.3673 67.7794L31.9614 65.1853V68.8539C31.9614 70.0399 32.9229 71.0014 34.109 71.0014C35.295 71.0014 36.2565 70.0399 36.2565 68.8539V65.1854L38.8505 67.7794C39.6892 68.6181 41.049 68.6181 41.8877 67.7794C42.7263 66.9407 42.7263 65.581 41.8877 64.7423L39.2937 62.1483L42.9622 62.1483C44.1483 62.1483 45.1098 61.1868 45.1098 60.0007C45.1098 58.8147 44.1483 57.8532 42.9622 57.8532H39.2936L41.8876 55.2592C42.7262 54.4205 42.7262 53.0607 41.8876 52.222C41.0489 51.3834 39.6891 51.3834 38.8504 52.222L36.2565 54.8159V51.1476Z" fill="url(#paint0_linear_209_39)"/>
<path id="Union_2" fill-rule="evenodd" clip-rule="evenodd" d="M46.4839 3.0244C46.4839 1.35407 45.1298 0 43.4595 0C41.7892 0 40.4351 1.35407 40.4351 3.0244V7.69957L37.1292 4.39369C35.9481 3.21259 34.0332 3.2126 32.8521 4.3937C31.671 5.5748 31.671 7.48974 32.8521 8.67084L36.1578 11.9766L31.4829 11.9766C29.8126 11.9766 28.4585 13.3307 28.4585 15.001C28.4585 16.6713 29.8126 18.0254 31.4829 18.0254H36.1579L32.8521 21.3312C31.671 22.5123 31.671 24.4272 32.8521 25.6083C34.0332 26.7894 35.9482 26.7894 37.1293 25.6083L40.4351 22.3025V26.9776C40.4351 28.6479 41.7892 30.002 43.4595 30.002C45.1298 30.002 46.4839 28.6479 46.4839 26.9776V22.3026L49.7895 25.6083C50.9706 26.7894 52.8856 26.7894 54.0667 25.6083C55.2478 24.4272 55.2478 22.5123 54.0667 21.3312L50.7609 18.0254H55.4361C57.1064 18.0254 58.4605 16.6713 58.4605 15.001C58.4605 13.3307 57.1064 11.9766 55.4361 11.9766L50.761 11.9766L54.0667 8.67084C55.2478 7.48974 55.2478 5.5748 54.0667 4.3937C52.8856 3.2126 50.9707 3.21259 49.7896 4.39369L46.4839 7.69939V3.0244Z" fill="url(#paint1_linear_209_39)"/>
<path id="Union_3" fill-rule="evenodd" clip-rule="evenodd" d="M15.6186 23.4084C15.6186 21.9627 14.4466 20.7906 13.0009 20.7906C11.5551 20.7906 10.3831 21.9627 10.3831 23.4084V27.4717L7.50995 24.5985C6.48765 23.5762 4.83018 23.5762 3.80789 24.5985C2.78559 25.6208 2.78559 27.2783 3.80789 28.3006L6.68105 31.1737L2.61775 31.1737C1.17201 31.1737 0 32.3457 0 33.7915C0 35.2372 1.17201 36.4092 2.61775 36.4092L6.68105 36.4092L3.80789 39.2824C2.78559 40.3047 2.78559 41.9621 3.80789 42.9844C4.83018 44.0067 6.48765 44.0067 7.50995 42.9844L10.3831 40.1113V44.1745C10.3831 45.6203 11.5551 46.7923 13.0009 46.7923C14.4466 46.7923 15.6186 45.6203 15.6186 44.1745V40.1113L18.4918 42.9844C19.5141 44.0067 21.1715 44.0067 22.1938 42.9844C23.2161 41.9621 23.2161 40.3047 22.1938 39.2824L19.3207 36.4092L23.3839 36.4092C24.8296 36.4092 26.0016 35.2372 26.0016 33.7915C26.0016 32.3457 24.8296 31.1737 23.3839 31.1737L19.3207 31.1737L22.1938 28.3006C23.2161 27.2783 23.2161 25.6208 22.1938 24.5985C21.1715 23.5762 19.5141 23.5762 18.4918 24.5985L15.6186 27.4716V23.4084Z" fill="url(#paint2_linear_209_39)"/>
</g>
<defs>
<linearGradient id="paint0_linear_209_39" x1="26.2491" y1="66.5488" x2="47.145" y2="48.9119" gradientUnits="userSpaceOnUse">
<stop stop-color="#0056D6"/>
<stop offset="1" stop-color="#ADD8FF"/>
</linearGradient>
<linearGradient id="paint1_linear_209_39" x1="32.7414" y1="23.9302" x2="61.2358" y2="-0.120178" gradientUnits="userSpaceOnUse">
<stop stop-color="#0056D6"/>
<stop offset="1" stop-color="#ADD8FF"/>
</linearGradient>
<linearGradient id="paint2_linear_209_39" x1="3.71181" y1="41.5301" x2="28.4069" y2="20.6865" gradientUnits="userSpaceOnUse">
<stop stop-color="#0056D6"/>
<stop offset="1" stop-color="#ADD8FF"/>
</linearGradient>
</defs>
</svg>
